<svg width="24" height="24" viewBox="0 0 24 24" fill="none" xmlns="http://www.w3.org/2000/svg">
<g clip-path="url(#clip0_362_603)">
<path d="M12.0225 0.09375C12.015 0.09375 12.0077 0.09375 12 0.09375C5.42835 0.09375 0.00458053 5.44079 2.89595e-06 12.0851C-0.00219437 15.2937 1.24604 18.3104 3.51471 20.579C3.88092 20.9451 4.47437 20.9451 4.84058 20.579C5.20661 20.2128 5.20661 19.6192 4.84058 19.2532C2.92639 17.339 1.87317 14.7938 1.875 12.0864C1.87903 6.54455 6.39716 1.96875 12.0002 1.96875H12.019C17.5915 1.97919 22.125 6.52112 22.125 12.0937C22.125 16.8662 18.7396 21.035 14.0751 22.0062C13.4954 22.1266 12.9375 21.6951 12.9375 21.0899V18.5619C15.0745 18.1265 16.6875 16.2325 16.6875 13.9687V11.1562H17.1562C17.6741 11.1562 18.0938 10.7366 18.0938 10.2187C18.0938 9.70093 17.6741 9.28125 17.1562 9.28125H14.8125V6.46875C14.8125 5.95093 14.3928 5.53125 13.875 5.53125C13.3572 5.53125 12.9375 5.95093 12.9375 6.46875V9.28125H11.0625V6.46875C11.0625 5.95093 10.6428 5.53125 10.125 5.53125C9.60718 5.53125 9.1875 5.95093 9.1875 6.46875V9.28125H6.84375C6.32593 9.28125 5.90625 9.70093 5.90625 10.2187C5.90625 10.7366 6.32593 11.1562 6.84375 11.1562H7.3125V13.9687C7.3125 16.2325 8.92548 18.1265 11.0625 18.5619V21.0899C11.0625 22.8766 12.7072 24.2062 14.4575 23.8416C19.8946 22.7097 24 17.887 24 12.0937C24 5.47156 18.6475 0.106018 12.0225 0.09375ZM9.1875 13.9687V11.1562H14.8125V13.9687C14.8125 15.5196 13.5509 16.7812 12 16.7812C10.4493 16.7812 9.1875 15.5196 9.1875 13.9687Z" fill="#6C9BF7"/>
</g>
<defs>
<clipPath id="clip0_362_603">
<rect width="24" height="24" fill="white"/>
</clipPath>
</defs>
</svg>
