<svg width="20" height="20" viewBox="0 0 20 20" fill="none" xmlns="http://www.w3.org/2000/svg">
<g clip-path="url(#clip0_245_1490)">
<path d="M1.63742 16.4522C1.63742 17.5486 2.5284 18.4405 3.62363 18.4405C3.90496 18.4405 4.1766 18.383 4.43105 18.2695L5.06648 19.6936C4.61074 19.8969 4.12531 20 3.62363 20C1.66859 20 0.0779688 18.4085 0.0779688 16.4522C0.0779688 14.4959 1.66855 12.9045 3.62363 12.9045C4.12531 12.9045 4.61074 13.0076 5.06648 13.2109L4.43105 14.635C4.17664 14.5215 3.90496 14.4639 3.62363 14.4639C2.52844 14.4639 1.63742 15.3559 1.63742 16.4522ZM12.4471 16.4522C12.4471 18.4037 10.8601 19.9922 8.90648 20C8.90168 20 8.89695 20 8.89219 20C6.93855 19.9922 5.35156 18.4037 5.35156 16.4522C5.35156 14.5007 6.93855 12.9122 8.89215 12.9045H8.90645C10.8601 12.9122 12.4471 14.5008 12.4471 16.4522ZM10.8876 16.4522C10.8876 15.3583 9.99633 14.4679 8.8993 14.4639C7.8023 14.4678 6.91098 15.3582 6.91098 16.4522C6.91098 17.5462 7.80227 18.4366 8.8993 18.4405C9.99625 18.4366 10.8876 17.5462 10.8876 16.4522ZM15.1568 15.0098H13.6063V16.5692H15.1568C15.1993 16.5692 15.2402 16.6033 15.2626 16.6498C15.0684 16.9615 14.3739 17.701 13.6782 18.3296L13.421 18.5619V19.961H16.7226V18.4016H15.83C16.6663 17.5103 16.8396 17.0944 16.8396 16.7252C16.8396 15.7793 16.0847 15.0098 15.1568 15.0098ZM16.2549 6.1425C16.1627 2.73984 13.3661 0 9.94152 0C8.36832 0 6.86094 0.581992 5.69711 1.63879C4.69422 2.54938 4.0166 3.74648 3.75125 5.05793C2.8032 5.26184 1.93781 5.75219 1.26832 6.47398C0.45043 7.35582 0 8.50422 0 9.70762C0 10.6394 0.269609 11.5094 0.734492 12.244C1.1648 11.9474 1.64262 11.7151 2.15402 11.5611C1.78027 11.0378 1.55945 10.3982 1.55945 9.70762C1.55945 8.05273 2.84973 6.65309 4.49691 6.52121L5.1441 6.46941L5.21039 5.82355C5.45984 3.39266 7.49379 1.55945 9.94152 1.55945C12.5642 1.55945 14.6979 3.69313 14.6979 6.31578V7.68031H15.8284C17.2688 7.68031 18.4405 8.85207 18.4405 10.2924C18.4405 11.4949 17.6235 12.5096 16.5156 12.8121L17.0518 14.2807C18.757 13.7567 20 12.1671 20 10.2924C20 8.13609 18.3557 6.35668 16.2549 6.1425Z" fill="#FE7713"/>
</g>
<defs>
<clipPath id="clip0_245_1490">
<rect width="20" height="20" fill="white"/>
</clipPath>
</defs>
</svg>
