<svg width="20" height="20" viewBox="0 0 20 20" fill="none" xmlns="http://www.w3.org/2000/svg">
<g clip-path="url(#clip0_245_1506)">
<path d="M19.2188 16.875C19.6502 16.875 20 16.5252 20 16.0938V13.0078C20 12.7809 19.9014 12.5653 19.7298 12.4169L18.4314 11.2939L16.9392 7.45156C16.8225 7.15109 16.5333 6.95312 16.2109 6.95312H10.3906C10.0683 6.95312 9.77906 7.15109 9.66234 7.45156L8.17016 11.2939L6.87176 12.4169C6.70016 12.5653 6.60156 12.7809 6.60156 13.0078V16.0938C6.60156 16.5252 6.95133 16.875 7.38281 16.875H8.16406V18.4375H5.03906V8.59375H5.75309C5.96027 8.59375 6.15902 8.51145 6.30551 8.36492L8.36492 6.30551C8.51145 6.15902 8.59375 5.96027 8.59375 5.75309V2.84066C8.59375 2.63348 8.51145 2.43473 8.36492 2.28824L6.30551 0.228828C6.15902 0.0823047 5.96027 0 5.75309 0H2.84066C2.63348 0 2.43473 0.0823047 2.28824 0.228828L0.228828 2.28824C0.0823047 2.43473 0 2.63348 0 2.84066V5.75313C0 5.96031 0.0823047 6.15906 0.228828 6.30555L2.28824 8.36496C2.43473 8.51148 2.63348 8.59379 2.84066 8.59379H3.47656V18.4375H0.78125C0.349766 18.4375 0 18.7873 0 19.2188C0 19.6503 0.349766 20 0.78125 20H19.2188C19.6502 20 20 19.6503 20 19.2188C20 18.7873 19.6502 18.4375 19.2188 18.4375H18.4375V16.875H19.2188V16.875ZM1.5625 5.42949V3.16426L3.16426 1.5625H5.42949L7.03125 3.16426V5.42949L5.42949 7.03125H3.16426L1.5625 5.42949ZM8.16406 15.3125V13.7891H18.4375V15.3125H8.16406ZM10.9253 8.51562H15.6763L17.0452 12.0406C17.0711 12.1073 17.1062 12.1697 17.1489 12.2266H9.45269C9.49535 12.1697 9.53051 12.1073 9.55641 12.0406L10.9253 8.51562ZM16.875 18.4375H9.72656V16.875H16.875V18.4375Z" fill="#FE5A82"/>
</g>
<defs>
<clipPath id="clip0_245_1506">
<rect width="20" height="20" fill="white"/>
</clipPath>
</defs>
</svg>
