<svg width="20" height="20" viewBox="0 0 20 20" fill="none" xmlns="http://www.w3.org/2000/svg">
<g clip-path="url(#clip0_245_1514)">
<path d="M16.0935 19.9996H3.90652C1.75271 19.9996 0.000437519 18.2473 0.000437519 16.0935V13.4839C-0.0340922 10.4899 1.97875 7.63676 4.79207 6.61286L8.24254 5.31159L6.71105 4.40307C5.43895 3.64842 4.64867 2.26078 4.64867 0.781705C4.64867 0.350239 4.99843 0.000488281 5.42989 0.000488281H14.5701C15.0016 0.000488281 15.3513 0.350239 15.3513 0.781705V0.798774C15.3513 1.9538 14.8674 3.05618 14.0483 3.84239C14.3277 3.86798 14.5965 3.91012 14.8518 3.95016C15.2429 4.01149 15.6122 4.06953 15.9618 4.06293C16.2503 4.05758 16.51 4.00246 16.7556 3.8945C17.1506 3.7208 17.6116 3.90028 17.7852 4.29523C17.9588 4.69021 17.7794 5.15117 17.3845 5.32479C16.9459 5.5176 16.4901 5.61583 15.9908 5.62509C15.5054 5.63384 15.0499 5.56271 14.6097 5.49373C13.8315 5.37166 13.2124 5.27468 12.5837 5.60829L15.2475 6.6129C18.0618 7.63828 20.0332 10.4888 19.9996 13.4839V16.0935C19.9996 18.2473 18.2473 19.9996 16.0935 19.9996ZM10.0198 6.31119L5.34345 8.07479C3.08218 8.9276 1.56287 11.1013 1.56287 13.4839V16.0935C1.56287 17.3858 2.61423 18.4372 3.90652 18.4372H16.0935C17.3858 18.4372 18.4371 17.3858 18.4371 16.0935V13.4839C18.4371 11.0925 16.9337 8.9187 14.6961 8.07479L10.0198 6.31119ZM6.33013 1.56288C6.5225 2.18157 6.93854 2.72131 7.5082 3.05926L10.0356 4.55857L12.5089 3.0661C13.0744 2.72482 13.4865 2.18219 13.6748 1.56288H6.33013ZM12.5767 16.0544H10.4688C9.43335 16.016 9.43413 14.5301 10.4688 14.492H12.2792L12.2614 14.4626C12.0379 14.0936 12.1559 13.6132 12.5249 13.3897C12.8939 13.1661 13.3743 13.2841 13.5978 13.6531L13.7616 13.9235C14.0339 14.3478 14.0569 14.8813 13.8205 15.3206C13.5769 15.7732 13.1003 16.0544 12.5767 16.0544ZM7.73448 16.05H7.46238C6.94592 16.05 6.4725 15.7756 6.22681 15.3338C5.98338 14.896 5.99741 14.377 6.26419 13.9447L7.1058 12.5587C7.32973 12.1899 7.81022 12.0725 8.17903 12.2964C8.5478 12.5204 8.66522 13.0009 8.44129 13.3697L7.76217 14.488C8.77619 14.5563 8.75182 16.0169 7.73448 16.05ZM11.4069 12.5737C11.1514 12.5737 10.9009 12.4484 10.7512 12.2181L9.96083 11.0022L9.94419 11.0328C9.73807 11.4119 9.26367 11.552 8.88466 11.3459C8.50566 11.1398 8.36547 10.6654 8.57163 10.2864C8.57163 10.2864 8.74459 9.96928 8.75248 9.95651C9.0065 9.5475 9.44624 9.29931 9.9288 9.29259C10.4109 9.28716 10.858 9.52184 11.1233 9.92373C11.1243 9.92526 11.1253 9.92682 11.1264 9.92838L12.0613 11.3666C12.2964 11.7283 12.1938 12.2122 11.8321 12.4473C11.7005 12.5328 11.5529 12.5737 11.4069 12.5737Z" fill="#4ACC9C"/>
</g>
<defs>
<clipPath id="clip0_245_1514">
<rect width="20" height="20" fill="white"/>
</clipPath>
</defs>
</svg>
