<svg width="20" height="20" viewBox="0 0 20 20" fill="none" xmlns="http://www.w3.org/2000/svg">
<g clip-path="url(#clip0_245_1498)">
<path d="M16.1457 6.14559H13.0729C10.7546 6.14559 8.42713 6.67905 6.17213 7.79744V3.41769C8.27499 2.24081 10.5953 1.56244 13.0729 1.56244C13.5044 1.56244 13.8542 1.21269 13.8542 0.781221C13.8542 0.349753 13.5044 0 13.0729 0C9.62119 0 6.38955 1.18406 3.58707 3.22222C1.40462 4.80947 0.206652 6.39152 0.156732 6.45808C0.0552909 6.59331 0.000488281 6.75779 0.000488281 6.92681V19.218C0.000488281 19.6495 0.350241 19.9993 0.781709 19.9993H10.0001C10.4316 19.9993 10.7813 19.6495 10.7813 19.218C10.7813 18.7866 10.4316 18.4368 10.0001 18.4368H7.70852V16.1452C7.70852 13.7339 9.95215 11.308 12.2917 10.8572V13.0724C12.2917 13.5039 12.6414 13.8536 13.0729 13.8536H14.2598L13.7934 14.32C12.4932 15.6202 12.4931 17.7245 13.7934 19.0248C15.0935 20.325 17.1979 20.3251 18.4982 19.0248C19.7983 17.7248 19.7985 15.6203 18.4982 14.32L18.0318 13.8536H19.2185C19.65 13.8536 19.9997 13.5039 19.9997 13.0724V9.99963C19.9998 7.87451 18.2709 6.14559 16.1457 6.14559ZM17.3934 17.92C16.7039 18.6095 15.5879 18.6097 14.8983 17.92C14.2088 17.2305 14.2086 16.1145 14.8983 15.4249L16.1458 14.1772L17.3934 15.4249C18.0813 16.1128 18.0813 17.2321 17.3934 17.92ZM4.54794 4.4555C4.56844 4.44065 4.58915 4.42628 4.60973 4.41155V8.67503C3.50469 9.37125 2.47598 10.1849 1.56297 11.0647V7.20184C1.93698 6.75303 2.96913 5.59651 4.54794 4.4555ZM18.4373 12.2912H13.8542V9.99963C13.8542 9.56816 13.5044 9.21841 13.0729 9.21841C9.56841 9.21841 6.14612 12.6392 6.14612 16.1452V18.4368H1.56297V13.3467C1.93096 12.9037 2.94124 11.7695 4.5061 10.6314C7.05573 8.77717 9.96965 7.70807 13.073 7.70807H16.1458C17.4094 7.70807 18.4374 8.73608 18.4374 9.99967L18.4373 12.2912Z" fill="#A364FF"/>
</g>
<defs>
<clipPath id="clip0_245_1498">
<rect width="20" height="20" fill="white"/>
</clipPath>
</defs>
</svg>
